<svg id="Layer_1" data-name="Layer 1" xmlns="http://www.w3.org/2000/svg" width="142.4" height="59.53" viewBox="0 0 1366 768"><defs><style>.cls-1{fill:#fff;}</style></defs><title>Artboard 1</title><path class="cls-1" d="M494.38,29.46q-59,110.61-110.93,177.79-52,66.7-101.22,95.81-40.56,23.52-76.08,23.52-29.49,0-45.91-19.4-12.74-15-12.74-33.23,0-40.74,32.51-85.13,20.44-27.66,52.62-49.24,15.41-10.43,22.45-10.43a12.75,12.75,0,0,1,8.72,3.64,7.38,7.38,0,0,1,2.68,5.58q0,3.63-18.1,20.61-61.66,58.46-61.66,106a39.58,39.58,0,0,0,8.71,25.46q9.72,11.9,27.48,11.89,35.19,0,76.75-44.39,52.95-56.26,111.6-149.65,27.83-44.62,42.9-74.94-64.35,9-89.48,16.25-11.07,3.15-17.77,3.15a18,18,0,0,1-12.4-4.85,10,10,0,0,1-3.35-7.52q0-10.18,19.11-15.28Q431.36,3.27,525.21,3.27q26.81,0,37.2,3.39,10.07,3.4,10.06,10.43Q572.47,30,549,30q-6.72,0-18.1-.49-11.4-.23-19.1-.24C508,29.22,502.2,29.31,494.38,29.46Z"/><path class="cls-1" d="M451.48,271v4.37a12.89,12.89,0,0,0,3.69,9.21q8.37,9,27.48,9,41.89,0,96.86-46.57,9.71-8,16.42-8a9.93,9.93,0,0,1,6.7,2.67c1.34,1.3,2,2.51,2,3.64q0,9.46-32.17,32a253.44,253.44,0,0,1-53.63,28.86q-28.49,11.16-53,11.16-25.14,0-39.55-12.61-9.7-8.75-9.72-23.77,0-41,53.29-80.29,43.24-32,75.41-32a32,32,0,0,1,15.75,3.88q8.71,5.09,8.72,13.34,0,12.85-16.43,31.53Q519.5,256.25,451.48,271Zm7.37-18.92q23.46-5.82,36.87-13.1,23.46-13.1,37.2-29.59,5-5.82,5-10.43c0-3.23-2.13-4.85-6.37-4.85q-8.72,0-24.8,9.46Q478,220.35,458.85,252.12Z"/><path class="cls-1" d="M767.52,156.56q20.78,0,31.17,5.34t10.39,16.25q0,14.31-14.75,27.65-14.07,12.62-42.22,20.37-15.42,4.13-25.81,4.12-14.09,0-14.08-9,0-6.06,8-9.22,2-.72,22.79-4.12a59.47,59.47,0,0,0,22.79-8.49q9-5.58,9-12.13a8.17,8.17,0,0,0-4-7.52q-4-2.42-12.06-2.42-19.44,0-42.9,11.4-27.15,12.85-27.15,30.56,0,12.62,17.77,31.53,19.77,20.63,19.77,34.93,0,21.35-26.14,33.47-16.1,7.51-36.53,7.52-32.18,0-48.93-16.74A38.7,38.7,0,0,1,603,282q0-18.93,13.4-31.78,8.71-8.49,18.1-8.49,8.37,0,8.38,4.85,0,2-3,5.82a40.12,40.12,0,0,0-7.71,24.5q0,11.89,11.73,20.13a40.48,40.48,0,0,0,23.8,7.28q13.07,0,20.44-6.31a17.33,17.33,0,0,0,6-13.58q0-10.19-16.09-26.44-22.12-22.31-22.12-40.5,0-24.25,36.53-42.93A164.18,164.18,0,0,1,767.52,156.56Z"/><path class="cls-1" d="M942.13,156.56q20.77,0,31.17,5.34t10.39,16.25q0,14.31-14.75,27.65-14.07,12.62-42.23,20.37-15.4,4.13-25.8,4.12-14.08,0-14.08-9,0-6.06,8-9.22,2-.72,22.79-4.12a59.47,59.47,0,0,0,22.79-8.49q9-5.58,9-12.13a8.17,8.17,0,0,0-4-7.52q-4-2.42-12.06-2.42-19.44,0-42.9,11.4-27.15,12.85-27.15,30.56,0,12.62,17.76,31.53,19.79,20.63,19.78,34.93,0,21.35-26.14,33.47-16.1,7.51-36.53,7.52-32.18,0-48.93-16.74A38.7,38.7,0,0,1,777.58,282q0-18.93,13.4-31.78,8.71-8.49,18.1-8.49,8.37,0,8.38,4.85,0,2-3,5.82a40.12,40.12,0,0,0-7.71,24.5q0,11.89,11.73,20.13a40.48,40.48,0,0,0,23.8,7.28q13.07,0,20.44-6.31a17.32,17.32,0,0,0,6-13.58q0-10.19-16.08-26.44-22.12-22.31-22.12-40.5,0-24.25,36.53-42.93A164.18,164.18,0,0,1,942.13,156.56Z"/><path class="cls-1" d="M989.05,271v4.37a12.89,12.89,0,0,0,3.69,9.21q8.37,9,27.48,9,41.9,0,96.86-46.57,9.72-8,16.42-8a9.91,9.91,0,0,1,6.7,2.67c1.34,1.3,2,2.51,2,3.64q0,9.46-32.17,32a253.61,253.61,0,0,1-53.62,28.86q-28.5,11.16-53,11.16-25.12,0-39.54-12.61Q954.2,296,954.2,281q0-41,53.29-80.29,43.23-32,75.4-32a32,32,0,0,1,15.75,3.88q8.71,5.09,8.72,13.34,0,12.85-16.42,31.53Q1057.08,256.25,989.05,271Zm7.38-18.92q23.45-5.82,36.86-13.1,23.46-13.1,37.2-29.59,5-5.82,5-10.43c0-3.23-2.13-4.85-6.37-4.85q-8.72,0-24.8,9.46Q1015.52,220.35,996.43,252.12Z"/><path class="cls-1" d="M39.08,631q88.48-116.65,169.25-202.77,37.53-40,86.13-84.65,19.11-17.7,33.18-17.7a14.58,14.58,0,0,1,9.72,3.39,6.93,6.93,0,0,1,2.68,5.1q0,6.3-17.09,21.58Q212,456.38,71.93,638q-12.75,16.49-19.11,21.82-6.7,6.06-16.75,6.07-34.18,0-34.19-45.36,0-43.17,30.17-133.88,24.8-75,60.66-134.38,13.4-22.31,17.42-26.43,7.05-7,18.77-7,7.71,0,12.07,3.4,4,2.67,4,6.55,0,5.82-4,12.85l-12.74,21.83A826.36,826.36,0,0,0,68.91,487.9q-30.49,80.76-30.5,129.28Z"/><path class="cls-1" d="M253.58,582v4.36a12.92,12.92,0,0,0,3.68,9.22q8.39,9,27.49,9,41.88,0,96.85-46.57,9.72-8,16.42-8a9.89,9.89,0,0,1,6.71,2.67,5.37,5.37,0,0,1,2,3.64q0,9.45-32.18,32a252.71,252.71,0,0,1-53.62,28.87Q292.46,628.34,268,628.33q-25.14,0-39.55-12.61Q218.72,607,218.72,592q0-41,53.29-80.28,43.23-32,75.41-32a32.16,32.16,0,0,1,15.75,3.88q8.71,5.1,8.71,13.34,0,12.87-16.42,31.53Q321.61,567.22,253.58,582ZM261,563.09q23.46-5.82,36.87-13.1,23.44-13.1,37.2-29.59,5-5.82,5-10.43,0-4.85-6.36-4.85-8.73,0-24.8,9.46Q280.05,531.32,261,563.09Z"/><path class="cls-1" d="M477.79,545.38q4.35-2.91,8.38-5.82,70-49.48,93.84-49.48,13.07,0,13.07,10.43,0,7.28-11.73,17.22-64,54.09-64,95.32,0,13.35,10,25.47,4.7,5.58,4.69,8.73,0,2.91-4,5.58a16.44,16.44,0,0,1-10.39,3.4q-13.74,0-23.12-12.62-9.06-11.88-9.05-28.86,0-32.75,34.18-72.52-45.58,21.1-84.79,74.7-10,12.87-21.45,12.86a14.67,14.67,0,0,1-9.38-2.91,10.36,10.36,0,0,1-4.7-8.73q0-13.11,41.23-68.65,22.11-30.06,34.85-43.65,12.74-13.34,21.79-13.34a14.13,14.13,0,0,1,8.38,2.91q4.68,3.39,4.69,7.76,0,5.34-9.72,15.28A260.8,260.8,0,0,0,477.79,545.38Z"/><path class="cls-1" d="M618.55,582v4.36a12.89,12.89,0,0,0,3.69,9.22q8.37,9,27.48,9,41.89,0,96.86-46.57,9.7-8,16.42-8a9.88,9.88,0,0,1,6.7,2.67,5.37,5.37,0,0,1,2,3.64q0,9.45-32.17,32a253,253,0,0,1-53.63,28.87Q657.43,628.34,633,628.33q-25.14,0-39.55-12.61-9.7-8.73-9.72-23.77,0-41,53.29-80.28,43.24-32,75.41-32a32.13,32.13,0,0,1,15.75,3.88q8.72,5.1,8.72,13.34,0,12.87-16.43,31.53Q686.58,567.22,618.55,582Zm7.37-18.92q23.46-5.82,36.87-13.1,23.46-13.1,37.2-29.59,5-5.82,5-10.43c0-3.23-2.13-4.85-6.37-4.85q-8.71,0-24.8,9.46Q645,531.32,625.92,563.09Z"/><path class="cls-1" d="M881,607.72q35.85-18.93,53.29-34.45,25.8-22.54,36.53-36.62,5.36-6.3,11.06-6.31c5.36,0,8,1.87,8,5.58q0,6.55-12.73,21.83Q937.61,604.32,858.51,639q-36.87,55.79-54.29,75.68-46.25,52.4-87.14,52.39-21.44,0-30.83-12.13a25.73,25.73,0,0,1-5.36-16q0-38.07,67.7-73,10.73-5.82,86.8-36.38,14.75-22.56,22.79-35.42Q823,620.81,799.86,620.81q-14.4,0-22.45-10.67a24.73,24.73,0,0,1-5-14.55q0-17.46,19.77-44.87,28.15-39.54,67.7-62.58Q893,469,918.5,469q13.08,0,22.46,7,6.36,4.62,6.37,13.59,0,11.16-10.39,27.65c5.13,3.55,7.71,6.22,7.71,8q0,1.69-3.36,4.85-9,9-29.15,33.72A363,363,0,0,0,881,607.72Zm-65.69,50Q771,671.27,737.19,698.91q-15.75,12.86-22.45,27.17a18.29,18.29,0,0,0-2,7.28,8.46,8.46,0,0,0,2,5.57q3.69,4.37,10.39,4.37,20.77,0,48.59-32.26A600.27,600.27,0,0,0,815.28,657.68Zm63.34-106q-4.7-3.65-4.69-5.1,0-2.18,5-5.57,16.75-11.65,27.14-24.26,8.39-9.94,8.38-15.52,0-6.56-8.38-6.55-14.4,0-41.22,19.89Q833,538.1,815.28,567.21q-8.71,14.55-8.71,22.32,0,4.37,2.68,6.54t7.71,2.19q11.71,0,32.84-17.47A204.31,204.31,0,0,0,872.59,559Q879,551.94,878.62,551.69Z"/><path class="cls-1" d="M1088.76,588.56A193.41,193.41,0,0,1,1067,612.33q-21.1,18.92-41.89,18.91-18.09,0-28.15-12.37A29.48,29.48,0,0,1,990.56,600q0-26.93,23.46-59.43,26.14-36.13,63-55.54,24.13-12.62,46.58-12.61,14.09,0,23.46,6.3,8.06,5.58,8,12.61,0,5.34-5.7,14.8c3.35,3.39,5,6.39,5,9q0,5.1-9.39,16.74-9.72,11.88-19.44,31.53-10.38,20.86-10.39,33.47,0,10.19,8.38,16.74,2.34,1.69,13.74,5.58,8.39,2.91,8.38,10.18,0,4.62-4.69,7.52a21.54,21.54,0,0,1-11.73,3.16,45.32,45.32,0,0,1-31.17-11.65,30.33,30.33,0,0,1-10.72-23.77A151.17,151.17,0,0,1,1088.76,588.56Zm41.89-79.8a27.72,27.72,0,0,0-8.71-7.89,20.85,20.85,0,0,0-10.06-2.54q-25.47,0-55.3,32.26-32.85,35.65-32.84,60.39,0,6.06,3.18,9.22t9.56,3.15q16.08,0,37.53-24.74,12.08-13.58,29.83-40,11.73-17.22,17.09-22.8Q1123.62,512.88,1130.65,508.76Z"/><path class="cls-1" d="M1321.68,467.52q20.77,0,31.17,5.34t10.39,16.25q0,14.31-14.74,27.65-14.09,12.62-42.23,20.37-15.42,4.14-25.81,4.13-14.07,0-14.08-9,0-6.06,8-9.21,2-.74,22.79-4.13a59.62,59.62,0,0,0,22.79-8.48q9-5.58,9-12.13a8.15,8.15,0,0,0-4-7.52q-4-2.43-12.06-2.43-19.44,0-42.9,11.4-27.15,12.87-27.15,30.56,0,12.61,17.77,31.54,19.77,20.61,19.77,34.92,0,21.35-26.14,33.47-16.1,7.53-36.53,7.52-32.18,0-48.93-16.73a38.7,38.7,0,0,1-11.73-28.14q0-18.92,13.4-31.77,8.73-8.49,18.1-8.49,8.37,0,8.38,4.85,0,1.95-3,5.82a40.08,40.08,0,0,0-7.71,24.5q0,11.88,11.73,20.13a40.48,40.48,0,0,0,23.8,7.28q13.07,0,20.44-6.31a17.31,17.31,0,0,0,6-13.58q0-10.19-16.09-26.44-22.12-22.32-22.12-40.51,0-24.24,36.53-42.93A164.34,164.34,0,0,1,1321.68,467.52Z"/></svg>